<?xml version="1.0" encoding="UTF-8"?>
<!DOCTYPE svg PUBLIC "-//W3C//DTD SVG 1.1//EN" "http://www.w3.org/Graphics/SVG/1.1/DTD/svg11.dtd">
<svg xmlns="http://www.w3.org/2000/svg" version="1.1" width="500px" height="500px" style="shape-rendering:geometricPrecision; text-rendering:geometricPrecision; image-rendering:optimizeQuality; fill-rule:evenodd; clip-rule:evenodd" xmlns:xlink="http://www.w3.org/1999/xlink">
<g><path style="opacity:1" fill="#fefefe" d="M -0.5,-0.5 C 166.167,-0.5 332.833,-0.5 499.5,-0.5C 499.5,82.8333 499.5,166.167 499.5,249.5C 498.5,249.5 497.5,249.5 496.5,249.5C 496.116,244.138 494.783,239.138 492.5,234.5C 492.717,231.579 492.051,228.913 490.5,226.5C 490.672,225.508 490.338,224.842 489.5,224.5C 489.737,223.209 489.404,222.209 488.5,221.5C 488.267,218.458 487.267,215.792 485.5,213.5C 482.903,204.314 479.236,195.648 474.5,187.5C 473.624,183.418 471.957,179.751 469.5,176.5C 469.771,174.62 469.104,173.287 467.5,172.5C 466.452,168.736 465.119,165.069 463.5,161.5C 464.5,161.5 465.5,161.5 466.5,161.5C 466.5,160.5 466.5,159.5 466.5,158.5C 464.631,157.835 462.631,157.169 460.5,156.5C 460.006,154.974 459.339,153.641 458.5,152.5C 458.443,151.391 458.11,150.391 457.5,149.5C 456.994,146.329 455.328,143.996 452.5,142.5C 446.167,142.5 439.833,142.5 433.5,142.5C 433.185,139.789 433.852,137.456 435.5,135.5C 436.833,134.5 436.833,133.5 435.5,132.5C 404.004,131.502 372.338,131.168 340.5,131.5C 340.821,125.974 340.488,120.64 339.5,115.5C 339.5,114.833 339.167,114.5 338.5,114.5C 328.575,112.899 319.575,115.232 311.5,121.5C 303.926,125.747 298.926,132.08 296.5,140.5C 282.201,142.32 267.534,143.154 252.5,143C 249.555,143.139 247.221,144.306 245.5,146.5C 242.833,147.167 241.167,148.833 240.5,151.5C 238.413,152.585 237.08,154.251 236.5,156.5C 233.72,157.078 231.053,157.745 228.5,158.5C 227.167,159.167 227.167,159.833 228.5,160.5C 229.833,161.167 231.167,161.833 232.5,162.5C 231.094,162.973 230.427,163.973 230.5,165.5C 228.674,167.147 227.34,169.147 226.5,171.5C 225.026,172.436 224.026,173.77 223.5,175.5C 222.094,175.973 221.427,176.973 221.5,178.5C 220.5,178.833 219.833,179.5 219.5,180.5C 218.4,181.605 217.733,182.938 217.5,184.5C 216.026,185.436 215.026,186.77 214.5,188.5C 213.094,188.973 212.427,189.973 212.5,191.5C 210.674,193.147 209.34,195.147 208.5,197.5C 205.815,200.19 203.482,203.19 201.5,206.5C 200.4,207.605 199.733,208.938 199.5,210.5C 196.395,213.275 194.062,216.608 192.5,220.5C 191.711,220.783 191.044,221.283 190.5,222C 164.663,222.168 138.997,222.668 113.5,223.5C 113.5,224.833 113.5,226.167 113.5,227.5C 114.911,229.914 116.911,231.581 119.5,232.5C 121.239,235.243 123.573,237.243 126.5,238.5C 128.569,241.573 131.236,243.906 134.5,245.5C 136.568,248.245 138.234,251.245 139.5,254.5C 116.966,249.783 94.6328,244.283 72.5,238C 50.5114,233.384 28.5114,233.384 6.5,238C 5.1921,243.422 4.52543,249.089 4.5,255C 5.09818,268.564 6.43151,282.064 8.5,295.5C 10.0349,303.172 11.7015,310.839 13.5,318.5C 42.5741,411.368 104.241,469.868 198.5,494C 210.946,496.087 223.279,497.92 235.5,499.5C 156.833,499.5 78.1667,499.5 -0.5,499.5C -0.5,332.833 -0.5,166.167 -0.5,-0.5 Z"/></g>
<g><path style="opacity:1" fill="#7ab9f7" d="M 234.5,36.5 C 239.163,41.3308 243.663,46.3308 248,51.5C 250.865,57.5948 253.032,63.9281 254.5,70.5C 257.791,71.3818 261.124,72.0484 264.5,72.5C 269.025,74.6772 273.025,77.6772 276.5,81.5C 289.543,80.5921 298.709,85.9254 304,97.5C 305.101,106.472 301.934,113.639 294.5,119C 290.389,120.891 286.056,121.891 281.5,122C 262.587,141.689 242.087,143.522 220,127.5C 209.561,134.177 198.561,135.177 187,130.5C 175.483,139.113 163.65,139.613 151.5,132C 148.4,129.081 146.4,125.581 145.5,121.5C 132.105,126.997 118.771,126.83 105.5,121C 92.8453,112.875 89.6786,102.042 96,88.5C 99.3955,84.9349 102.896,81.6015 106.5,78.5C 115.625,75.8802 124.958,74.8802 134.5,75.5C 134.248,72.6802 134.748,70.0135 136,67.5C 139.326,65.006 142.493,62.3393 145.5,59.5C 150.203,59.4372 154.87,59.7705 159.5,60.5C 160.115,56.9925 161.115,53.6591 162.5,50.5C 165.368,47.3121 168.368,44.1454 171.5,41C 175.597,38.6304 179.264,35.7971 182.5,32.5C 192.876,28.8669 203.542,27.7002 214.5,29C 221.547,30.6991 228.214,33.1991 234.5,36.5 Z"/></g>
<g><path style="opacity:1" fill="#aad1dc" d="M 234.5,36.5 C 228.214,33.1991 221.547,30.6991 214.5,29C 203.542,27.7002 192.876,28.8669 182.5,32.5C 192.018,26.914 202.351,25.0807 213.5,27C 221.31,28.5749 228.31,31.7415 234.5,36.5 Z"/></g>
<g><path style="opacity:1" fill="#a8d0da" d="M 182.5,32.5 C 179.264,35.7971 175.597,38.6304 171.5,41C 168.368,44.1454 165.368,47.3121 162.5,50.5C 166.949,42.0518 173.616,36.0518 182.5,32.5 Z"/></g>
<g><path style="opacity:1" fill="#abd2dc" d="M 234.5,36.5 C 246.164,44.0227 253.331,54.6894 256,68.5C 259.35,68.9184 262.184,70.2518 264.5,72.5C 261.124,72.0484 257.791,71.3818 254.5,70.5C 253.032,63.9281 250.865,57.5948 248,51.5C 243.663,46.3308 239.163,41.3308 234.5,36.5 Z"/></g>
<g><path style="opacity:1" fill="#aad1dc" d="M 162.5,50.5 C 161.115,53.6591 160.115,56.9925 159.5,60.5C 154.87,59.7705 150.203,59.4372 145.5,59.5C 145.611,58.8826 145.944,58.3826 146.5,58C 150.524,57.5027 154.524,57.6693 158.5,58.5C 158.794,55.2459 160.127,52.5792 162.5,50.5 Z"/></g>
<g><path style="opacity:1" fill="#aad1dc" d="M 145.5,59.5 C 142.493,62.3393 139.326,65.006 136,67.5C 134.748,70.0135 134.248,72.6802 134.5,75.5C 124.958,74.8802 115.625,75.8802 106.5,78.5C 110.35,75.9441 114.684,74.4441 119.5,74C 123.821,73.501 128.154,73.3343 132.5,73.5C 133.652,65.8517 137.986,61.185 145.5,59.5 Z"/></g>
<g><path style="opacity:1" fill="#f4c042" d="M 70.5,74.5 C 73.3034,77.4167 75.6367,80.75 77.5,84.5C 72.8333,85.8333 68.1667,85.8333 63.5,84.5C 65.843,81.1376 68.1764,77.8043 70.5,74.5 Z"/></g>
<g><path style="opacity:1" fill="#f2be3d" d="M 97.5,84.5 C 95.5756,86.695 93.9089,89.0283 92.5,91.5C 90.05,90.2235 87.7167,88.7235 85.5,87C 89.1667,84.8333 92.8333,82.6667 96.5,80.5C 97.4287,81.6888 97.762,83.0222 97.5,84.5 Z"/></g>
<g><path style="opacity:1" fill="#f3bc34" d="M 91.5,104.5 C 92.031,107.237 92.8644,109.904 94,112.5C 98.0995,117.108 102.599,121.108 107.5,124.5C 104.478,153.519 88.4783,166.019 59.5,162C 40.8729,154.367 32.7062,140.534 35,120.5C 41.0101,111.147 47.5101,102.147 54.5,93.5C 66.639,88.0135 78.4724,88.6801 90,95.5C 90.1805,98.6946 90.6805,101.695 91.5,104.5 Z"/></g>
<g><path style="opacity:1" fill="#3f4e42" d="M 338.5,114.5 C 328.864,114.492 319.864,116.825 311.5,121.5C 319.575,115.232 328.575,112.899 338.5,114.5 Z"/></g>
<g><path style="opacity:1" fill="#3d6b4a" d="M 338.5,114.5 C 338.5,123.833 338.5,133.167 338.5,142.5C 324.255,143.122 310.255,142.455 296.5,140.5C 298.926,132.08 303.926,125.747 311.5,121.5C 319.864,116.825 328.864,114.492 338.5,114.5 Z"/></g>
<g><path style="opacity:1" fill="#1e180b" d="M 60.5,127.5 C 67.4142,126.395 69.0808,128.729 65.5,134.5C 63.8888,133.68 63.2222,132.346 63.5,130.5C 62.5,130.5 61.5,130.5 60.5,130.5C 60.5,129.5 60.5,128.5 60.5,127.5 Z"/></g>
<g><path style="opacity:1" fill="#f4c24c" d="M 111.5,125.5 C 113.806,125.993 116.139,126.326 118.5,126.5C 119.609,127.29 120.942,127.79 122.5,128C 119.006,129.579 115.673,131.413 112.5,133.5C 111.52,130.914 111.187,128.247 111.5,125.5 Z"/></g>
<g><path style="opacity:1" fill="#b3afb1" d="M 339.5,115.5 C 340.488,120.64 340.821,125.974 340.5,131.5C 372.338,131.168 404.004,131.502 435.5,132.5C 403.5,132.5 371.5,132.5 339.5,132.5C 339.5,126.833 339.5,121.167 339.5,115.5 Z"/></g>
<g><path style="opacity:1" fill="#203d29" d="M 338.5,114.5 C 339.167,114.5 339.5,114.833 339.5,115.5C 339.5,121.167 339.5,126.833 339.5,132.5C 371.5,132.5 403.5,132.5 435.5,132.5C 436.833,133.5 436.833,134.5 435.5,135.5C 403.5,135.5 371.5,135.5 339.5,135.5C 339.5,137.833 339.5,140.167 339.5,142.5C 339.167,142.5 338.833,142.5 338.5,142.5C 338.5,133.167 338.5,123.833 338.5,114.5 Z"/></g>
<g><path style="opacity:1" fill="#191919" d="M 140.5,134.5 C 142.328,135.794 144.328,136.794 146.5,137.5C 146.504,141.605 144.504,143.105 140.5,142C 141.136,139.606 141.136,137.106 140.5,134.5 Z"/></g>
<g><path style="opacity:1" fill="#918a83" d="M 435.5,135.5 C 433.852,137.456 433.185,139.789 433.5,142.5C 433.167,142.5 432.833,142.5 432.5,142.5C 432.5,140.5 432.5,138.5 432.5,136.5C 401.833,136.5 371.167,136.5 340.5,136.5C 340.5,138.5 340.5,140.5 340.5,142.5C 340.167,142.5 339.833,142.5 339.5,142.5C 339.5,140.167 339.5,137.833 339.5,135.5C 371.5,135.5 403.5,135.5 435.5,135.5 Z"/></g>
<g><path style="opacity:1" fill="#231b0e" d="M 76.5,132.5 C 78.9118,132.694 79.9118,134.027 79.5,136.5C 80.5,136.5 81.5,136.5 82.5,136.5C 82.33,137.822 82.6634,138.989 83.5,140C 81.1667,140.667 78.8333,140.667 76.5,140C 76.8916,137.646 76.8916,135.146 76.5,132.5 Z"/></g>
<g><path style="opacity:1" fill="#f5f0dc" d="M 432.5,142.5 C 401.833,142.5 371.167,142.5 340.5,142.5C 340.5,140.5 340.5,138.5 340.5,136.5C 371.167,136.5 401.833,136.5 432.5,136.5C 432.5,138.5 432.5,140.5 432.5,142.5 Z"/></g>
<g><path style="opacity:1" fill="#242424" d="M 113.5,136.5 C 114.905,138.379 116.572,138.712 118.5,137.5C 119.645,138.776 119.645,140.109 118.5,141.5C 116.579,142.641 114.579,142.808 112.5,142C 113.406,140.301 113.739,138.467 113.5,136.5 Z"/></g>
<g><path style="opacity:1" fill="#a5cfda" d="M 264.5,72.5 C 269.676,73.5024 274.009,76.0024 277.5,80C 289.206,79.2137 298.039,83.7137 304,93.5C 307.715,111.8 300.215,121.967 281.5,124C 265.728,140.789 247.394,144.122 226.5,134C 224.323,132.485 222.156,130.985 220,129.5C 209.63,134.869 198.797,135.869 187.5,132.5C 181.264,136.523 174.431,138.857 167,139.5C 156.212,138.521 148.378,133.188 143.5,123.5C 135.493,127.209 127.16,128.209 118.5,126.5C 116.139,126.326 113.806,125.993 111.5,125.5C 110.292,124.766 108.959,124.433 107.5,124.5C 102.599,121.108 98.0995,117.108 94,112.5C 92.8644,109.904 92.031,107.237 91.5,104.5C 91.2307,100.069 91.564,95.7352 92.5,91.5C 93.9089,89.0283 95.5756,86.695 97.5,84.5C 99.974,81.6895 102.974,79.6895 106.5,78.5C 102.896,81.6015 99.3955,84.9349 96,88.5C 89.6786,102.042 92.8453,112.875 105.5,121C 118.771,126.83 132.105,126.997 145.5,121.5C 146.4,125.581 148.4,129.081 151.5,132C 163.65,139.613 175.483,139.113 187,130.5C 198.561,135.177 209.561,134.177 220,127.5C 242.087,143.522 262.587,141.689 281.5,122C 286.056,121.891 290.389,120.891 294.5,119C 301.934,113.639 305.101,106.472 304,97.5C 298.709,85.9254 289.543,80.5921 276.5,81.5C 273.025,77.6772 269.025,74.6772 264.5,72.5 Z"/></g>
<g><path style="opacity:1" fill="#11141a" d="M 109.5,113.5 C 112.588,113.197 114.254,114.53 114.5,117.5C 112.217,117.392 110.217,116.559 108.5,115C 109.056,114.617 109.389,114.117 109.5,113.5 Z"/></g>
<g><path style="opacity:1" fill="#161c26" d="M 137.5,103.5 C 142.895,102.555 144.561,104.555 142.5,109.5C 141.416,108.335 140.583,107.002 140,105.5C 137.841,107.956 137.008,107.29 137.5,103.5 Z"/></g>
<g><path style="opacity:1" fill="#151b24" d="M 157.5,95.5 C 161.788,95.5582 163.121,97.5582 161.5,101.5C 160.158,99.6585 158.491,98.1585 156.5,97C 157.056,96.6174 157.389,96.1174 157.5,95.5 Z"/></g>
<g><path style="opacity:1" fill="#0f1116" d="M 205.5,85.5 C 206.586,85.62 207.253,86.2867 207.5,87.5C 207.167,88.1667 206.833,88.8333 206.5,89.5C 205.571,88.3112 205.238,86.9778 205.5,85.5 Z"/></g>
<g><path style="opacity:1" fill="#272523" d="M 296.5,140.5 C 310.255,142.455 324.255,143.122 338.5,142.5C 338.833,142.5 339.167,142.5 339.5,142.5C 339.833,142.5 340.167,142.5 340.5,142.5C 371.167,142.5 401.833,142.5 432.5,142.5C 432.833,142.5 433.167,142.5 433.5,142.5C 439.833,142.5 446.167,142.5 452.5,142.5C 452.5,142.833 452.5,143.167 452.5,143.5C 386.499,143.333 320.499,143.5 254.5,144C 251.454,144.739 248.454,145.572 245.5,146.5C 247.221,144.306 249.555,143.139 252.5,143C 267.534,143.154 282.201,142.32 296.5,140.5 Z"/></g>
<g><path style="opacity:1" fill="#f2eeda" d="M 452.5,143.5 C 454.385,145.053 455.385,147.053 455.5,149.5C 384.833,149.5 314.167,149.5 243.5,149.5C 244.167,148.5 244.833,147.5 245.5,146.5C 248.454,145.572 251.454,144.739 254.5,144C 320.499,143.5 386.499,143.333 452.5,143.5 Z"/></g>
<g><path style="opacity:1" fill="#b0b0b0" d="M 162.5,146.5 C 163.552,148.256 165.219,148.923 167.5,148.5C 164.645,149.803 161.645,149.803 158.5,148.5C 159.102,145.841 160.435,145.174 162.5,146.5 Z"/></g>
<g><path style="opacity:1" fill="#0e0e0e" d="M 162.5,146.5 C 164.553,146.402 166.22,147.069 167.5,148.5C 165.219,148.923 163.552,148.256 162.5,146.5 Z"/></g>
<g><path style="opacity:1" fill="#f4bd38" d="M 30.5,141.5 C 33.5575,144.593 35.8909,148.26 37.5,152.5C 33.1667,153.833 28.8333,153.833 24.5,152.5C 26.7664,148.966 28.7664,145.3 30.5,141.5 Z"/></g>
<g><path style="opacity:1" fill="#f3bd38" d="M 108.5,142.5 C 112.118,144.813 114.784,148.147 116.5,152.5C 112.167,153.833 107.833,153.833 103.5,152.5C 105.705,149.423 107.372,146.09 108.5,142.5 Z"/></g>
<g><path style="opacity:1" fill="#b2aea1" d="M 452.5,142.5 C 455.328,143.996 456.994,146.329 457.5,149.5C 385.5,150.833 314.167,150.833 243.5,149.5C 314.167,149.5 384.833,149.5 455.5,149.5C 455.385,147.053 454.385,145.053 452.5,143.5C 452.5,143.167 452.5,142.833 452.5,142.5 Z"/></g>
<g><path style="opacity:1" fill="#2b2b2b" d="M 182.5,149.5 C 182.5,150.5 182.5,151.5 182.5,152.5C 180.5,152.5 178.5,152.5 176.5,152.5C 175.826,150.976 174.826,149.642 173.5,148.5C 173.833,148.167 174.167,147.833 174.5,147.5C 176.826,150.02 179.493,150.687 182.5,149.5 Z"/></g>
<g><path style="opacity:1" fill="#363840" d="M 245.5,146.5 C 244.833,147.5 244.167,148.5 243.5,149.5C 314.167,150.833 385.5,150.833 457.5,149.5C 458.11,150.391 458.443,151.391 458.5,152.5C 458.5,153.167 458.167,153.5 457.5,153.5C 454.316,151.586 450.649,150.92 446.5,151.5C 445.833,151.5 445.167,151.5 444.5,151.5C 434.833,151.5 425.167,151.5 415.5,151.5C 415.5,153.5 415.5,155.5 415.5,157.5C 415.5,157.833 415.5,158.167 415.5,158.5C 405.167,158.5 394.833,158.5 384.5,158.5C 384.5,158.167 384.5,157.833 384.5,157.5C 384.5,155.5 384.5,153.5 384.5,151.5C 374.833,151.5 365.167,151.5 355.5,151.5C 354.833,151.5 354.167,151.5 353.5,151.5C 343.833,151.5 334.167,151.5 324.5,151.5C 324.5,153.5 324.5,155.5 324.5,157.5C 324.5,157.833 324.5,158.167 324.5,158.5C 314.167,158.5 303.833,158.5 293.5,158.5C 293.5,158.167 293.5,157.833 293.5,157.5C 293.5,155.5 293.5,153.5 293.5,151.5C 283.833,151.5 274.167,151.5 264.5,151.5C 263.833,151.5 263.167,151.5 262.5,151.5C 255.167,151.5 247.833,151.5 240.5,151.5C 241.167,148.833 242.833,147.167 245.5,146.5 Z"/></g>
<g><path style="opacity:1" fill="#1d1d1d" d="M 193.5,150.5 C 199.885,149.214 201.885,151.547 199.5,157.5C 198.643,156.264 197.977,154.931 197.5,153.5C 195.668,152.943 194.335,151.943 193.5,150.5 Z"/></g>
<g><path style="opacity:1" fill="#aeaeae" d="M 182.5,149.5 C 183.452,150.452 184.452,151.452 185.5,152.5C 179.368,153.991 176.368,153.991 176.5,152.5C 178.5,152.5 180.5,152.5 182.5,152.5C 182.5,151.5 182.5,150.5 182.5,149.5 Z"/></g>
<g><path style="opacity:1" fill="#9199ac" d="M 240.5,151.5 C 247.833,151.5 255.167,151.5 262.5,151.5C 262.5,153.5 262.5,155.5 262.5,157.5C 253.651,157.826 244.984,157.493 236.5,156.5C 237.08,154.251 238.413,152.585 240.5,151.5 Z"/></g>
<g><path style="opacity:1" fill="#939bae" d="M 446.5,151.5 C 450.649,150.92 454.316,151.586 457.5,153.5C 458.028,154.721 458.695,155.887 459.5,157C 455.179,157.499 450.846,157.666 446.5,157.5C 446.5,155.5 446.5,153.5 446.5,151.5 Z"/></g>
<g><path style="opacity:1" fill="#939caf" d="M 264.5,151.5 C 274.167,151.5 283.833,151.5 293.5,151.5C 293.5,153.5 293.5,155.5 293.5,157.5C 283.833,157.5 274.167,157.5 264.5,157.5C 264.5,155.5 264.5,153.5 264.5,151.5 Z"/></g>
<g><path style="opacity:1" fill="#939caf" d="M 294.5,151.5 C 304.167,151.5 313.833,151.5 323.5,151.5C 323.5,153.5 323.5,155.5 323.5,157.5C 313.833,157.5 304.167,157.5 294.5,157.5C 294.5,155.5 294.5,153.5 294.5,151.5 Z"/></g>
<g><path style="opacity:1" fill="#929bae" d="M 353.5,151.5 C 353.5,153.5 353.5,155.5 353.5,157.5C 343.833,157.5 334.167,157.5 324.5,157.5C 324.5,155.5 324.5,153.5 324.5,151.5C 334.167,151.5 343.833,151.5 353.5,151.5 Z"/></g>
<g><path style="opacity:1" fill="#939caf" d="M 385.5,151.5 C 395.167,151.5 404.833,151.5 414.5,151.5C 414.5,153.5 414.5,155.5 414.5,157.5C 404.833,157.5 395.167,157.5 385.5,157.5C 385.5,155.5 385.5,153.5 385.5,151.5 Z"/></g>
<g><path style="opacity:1" fill="#939caf" d="M 355.5,151.5 C 365.167,151.5 374.833,151.5 384.5,151.5C 384.5,153.5 384.5,155.5 384.5,157.5C 374.833,157.5 365.167,157.5 355.5,157.5C 355.5,155.5 355.5,153.5 355.5,151.5 Z"/></g>
<g><path style="opacity:1" fill="#949db0" d="M 444.5,151.5 C 444.5,153.5 444.5,155.5 444.5,157.5C 434.833,157.5 425.167,157.5 415.5,157.5C 415.5,155.5 415.5,153.5 415.5,151.5C 425.167,151.5 434.833,151.5 444.5,151.5 Z"/></g>
<g><path style="opacity:1" fill="#5a5c6b" d="M 262.5,151.5 C 263.167,151.5 263.833,151.5 264.5,151.5C 264.5,153.5 264.5,155.5 264.5,157.5C 274.167,157.5 283.833,157.5 293.5,157.5C 293.5,157.833 293.5,158.167 293.5,158.5C 271.833,158.5 250.167,158.5 228.5,158.5C 231.053,157.745 233.72,157.078 236.5,156.5C 244.984,157.493 253.651,157.826 262.5,157.5C 262.5,155.5 262.5,153.5 262.5,151.5 Z"/></g>
<g><path style="opacity:1" fill="#565867" d="M 353.5,151.5 C 354.167,151.5 354.833,151.5 355.5,151.5C 355.5,153.5 355.5,155.5 355.5,157.5C 365.167,157.5 374.833,157.5 384.5,157.5C 384.5,157.833 384.5,158.167 384.5,158.5C 364.5,158.5 344.5,158.5 324.5,158.5C 324.5,158.167 324.5,157.833 324.5,157.5C 334.167,157.5 343.833,157.5 353.5,157.5C 353.5,155.5 353.5,153.5 353.5,151.5 Z"/></g>
<g><path style="opacity:1" fill="#5d5e6b" d="M 444.5,151.5 C 445.167,151.5 445.833,151.5 446.5,151.5C 446.5,153.5 446.5,155.5 446.5,157.5C 450.846,157.666 455.179,157.499 459.5,157C 458.695,155.887 458.028,154.721 457.5,153.5C 458.167,153.5 458.5,153.167 458.5,152.5C 459.339,153.641 460.006,154.974 460.5,156.5C 462.631,157.169 464.631,157.835 466.5,158.5C 466.167,158.5 465.833,158.5 465.5,158.5C 448.833,158.5 432.167,158.5 415.5,158.5C 415.5,158.167 415.5,157.833 415.5,157.5C 425.167,157.5 434.833,157.5 444.5,157.5C 444.5,155.5 444.5,153.5 444.5,151.5 Z"/></g>
<g><path style="opacity:1" fill="#22442b" d="M 228.5,158.5 C 250.167,158.5 271.833,158.5 293.5,158.5C 303.833,158.5 314.167,158.5 324.5,158.5C 344.5,158.5 364.5,158.5 384.5,158.5C 394.833,158.5 405.167,158.5 415.5,158.5C 432.167,158.5 448.833,158.5 465.5,158.5C 386.84,160.497 307.84,161.164 228.5,160.5C 227.167,159.833 227.167,159.167 228.5,158.5 Z"/></g>
<g><path style="opacity:1" fill="#1f1f1f" d="M 191.5,162.5 C 189.585,162.784 187.919,162.451 186.5,161.5C 185.15,160.176 185.317,159.176 187,158.5C 188.98,159.315 190.48,160.648 191.5,162.5 Z"/></g>
<g><path style="opacity:1" fill="#1e1f1e" d="M 465.5,158.5 C 465.833,158.5 466.167,158.5 466.5,158.5C 466.5,159.5 466.5,160.5 466.5,161.5C 465.5,161.5 464.5,161.5 463.5,161.5C 462.833,161.5 462.167,161.5 461.5,161.5C 385.096,161.17 308.762,161.503 232.5,162.5C 231.167,161.833 229.833,161.167 228.5,160.5C 307.84,161.164 386.84,160.497 465.5,158.5 Z"/></g>
<g><path style="opacity:1" fill="#f1edd9" d="M 461.5,161.5 C 463.262,165.362 465.262,169.028 467.5,172.5C 467.66,174.153 468.326,175.486 469.5,176.5C 470.351,180.535 472.017,184.202 474.5,187.5C 477.622,196.409 481.288,205.075 485.5,213.5C 485.733,216.542 486.733,219.208 488.5,221.5C 439.334,222.167 390.001,222.5 340.5,222.5C 290.829,222.5 241.495,221.833 192.5,220.5C 194.5,219.024 196.167,217.191 197.5,215C 218.337,214.832 239.004,214.332 259.5,213.5C 259.5,211.167 259.5,208.833 259.5,206.5C 240.833,206.5 222.167,206.5 203.5,206.5C 204.117,204.771 205.117,203.271 206.5,202C 224.164,201.5 241.83,201.333 259.5,201.5C 259.5,198.833 259.5,196.167 259.5,193.5C 243.464,194.151 227.798,193.484 212.5,191.5C 213.906,191.027 214.573,190.027 214.5,188.5C 229.5,188.5 244.5,188.5 259.5,188.5C 259.5,186.167 259.5,183.833 259.5,181.5C 246.634,181.16 233.967,180.16 221.5,178.5C 222.289,178.217 222.956,177.717 223.5,177C 235.674,176.831 247.674,176.331 259.5,175.5C 259.5,173.167 259.5,170.833 259.5,168.5C 249.494,168.666 239.494,168.5 229.5,168C 230.252,167.329 230.586,166.496 230.5,165.5C 231.906,165.027 232.573,164.027 232.5,162.5C 308.762,161.503 385.096,161.17 461.5,161.5 Z"/></g>
<g><path style="opacity:1" fill="#acacac" d="M 186.5,161.5 C 187.919,162.451 189.585,162.784 191.5,162.5C 195.243,162.459 195.41,163.126 192,164.5C 189.2,163.875 186.366,163.208 183.5,162.5C 184.325,161.614 185.325,161.281 186.5,161.5 Z"/></g>
<g><path style="opacity:1" fill="#686661" d="M 232.5,162.5 C 232.573,164.027 231.906,165.027 230.5,165.5C 230.427,163.973 231.094,162.973 232.5,162.5 Z"/></g>
<g><path style="opacity:1" fill="#f3be3a" d="M 43.5,159.5 C 47.6056,161.388 51.6056,163.554 55.5,166C 51.8816,168.974 47.8816,171.141 43.5,172.5C 43.5,168.167 43.5,163.833 43.5,159.5 Z"/></g>
<g><path style="opacity:1" fill="#f6d887" d="M 76.5,169.5 C 72.5,168.167 68.5,168.167 64.5,169.5C 63.9569,169.44 63.6236,169.107 63.5,168.5C 68.1667,167.167 72.8333,167.167 77.5,168.5C 77.3764,169.107 77.0431,169.44 76.5,169.5 Z"/></g>
<g><path style="opacity:1" fill="#f3be3a" d="M 95.5,159.5 C 97.4302,163.373 98.0969,167.706 97.5,172.5C 93.1184,171.141 89.1184,168.974 85.5,166C 89.0085,163.97 92.3419,161.804 95.5,159.5 Z"/></g>
<g><path style="opacity:1" fill="#74736d" d="M 461.5,161.5 C 462.167,161.5 462.833,161.5 463.5,161.5C 465.119,165.069 466.452,168.736 467.5,172.5C 465.262,169.028 463.262,165.362 461.5,161.5 Z"/></g>
<g><path style="opacity:1" fill="#f3bd39" d="M 76.5,169.5 C 74.9998,173.173 72.9998,176.506 70.5,179.5C 68.0751,176.411 66.0751,173.078 64.5,169.5C 68.5,168.167 72.5,168.167 76.5,169.5 Z"/></g>
<g><path style="opacity:1" fill="#43454b" d="M 230.5,165.5 C 230.586,166.496 230.252,167.329 229.5,168C 239.494,168.5 249.494,168.666 259.5,168.5C 259.5,170.833 259.5,173.167 259.5,175.5C 247.5,175.5 235.5,175.5 223.5,175.5C 224.026,173.77 225.026,172.436 226.5,171.5C 227.34,169.147 228.674,167.147 230.5,165.5 Z"/></g>
<g><path style="opacity:1" fill="#939bae" d="M 226.5,171.5 C 227.289,171.217 227.956,170.717 228.5,170C 238.494,169.5 248.494,169.334 258.5,169.5C 258.5,171.167 258.5,172.833 258.5,174.5C 247.495,174.667 236.495,174.5 225.5,174C 226.252,173.329 226.586,172.496 226.5,171.5 Z"/></g>
<g><path style="opacity:1" fill="#5a5b5c" d="M 266.5,168.5 C 330.17,168.167 393.837,168.5 457.5,169.5C 458.348,171.409 458.682,173.409 458.5,175.5C 394.5,175.5 330.5,175.5 266.5,175.5C 266.5,173.167 266.5,170.833 266.5,168.5 Z"/></g>
<g><path style="opacity:1" fill="#929bad" d="M 267.5,170.5 C 330.504,170.167 393.504,170.5 456.5,171.5C 456.833,172.167 457.167,172.833 457.5,173.5C 394.17,174.5 330.837,174.833 267.5,174.5C 267.5,173.167 267.5,171.833 267.5,170.5 Z"/></g>
<g><path style="opacity:1" fill="#676664" d="M 467.5,172.5 C 469.104,173.287 469.771,174.62 469.5,176.5C 468.326,175.486 467.66,174.153 467.5,172.5 Z"/></g>
<g><path style="opacity:1" fill="#c4c0b0" d="M 223.5,175.5 C 235.5,175.5 247.5,175.5 259.5,175.5C 247.674,176.331 235.674,176.831 223.5,177C 222.956,177.717 222.289,178.217 221.5,178.5C 221.427,176.973 222.094,175.973 223.5,175.5 Z"/></g>
<g><path style="opacity:1" fill="#959285" d="M 221.5,178.5 C 233.967,180.16 246.634,181.16 259.5,181.5C 246.087,181.814 232.754,181.481 219.5,180.5C 219.833,179.5 220.5,178.833 221.5,178.5 Z"/></g>
<g><path style="opacity:1" fill="#7f7e77" d="M 469.5,176.5 C 471.957,179.751 473.624,183.418 474.5,187.5C 472.017,184.202 470.351,180.535 469.5,176.5 Z"/></g>
<g><path style="opacity:1" fill="#949db1" d="M 459.5,182.5 C 460.167,182.5 460.5,182.833 460.5,183.5C 459.596,184.209 459.263,185.209 459.5,186.5C 395.5,186.5 331.5,186.5 267.5,186.5C 267.5,185.167 267.5,183.833 267.5,182.5C 331.5,182.5 395.5,182.5 459.5,182.5 Z"/></g>
<g><path style="opacity:1" fill="#3f424b" d="M 459.5,182.5 C 395.5,182.5 331.5,182.5 267.5,182.5C 267.5,183.833 267.5,185.167 267.5,186.5C 331.5,186.5 395.5,186.5 459.5,186.5C 459.263,185.209 459.596,184.209 460.5,183.5C 460.539,184.583 460.873,185.583 461.5,186.5C 396.503,187.5 331.503,187.833 266.5,187.5C 266.5,185.5 266.5,183.5 266.5,181.5C 331.002,181.168 395.335,181.501 459.5,182.5 Z"/></g>
<g><path style="opacity:1" fill="#45484f" d="M 219.5,180.5 C 232.754,181.481 246.087,181.814 259.5,181.5C 259.5,183.833 259.5,186.167 259.5,188.5C 244.5,188.5 229.5,188.5 214.5,188.5C 215.026,186.77 216.026,185.436 217.5,184.5C 217.733,182.938 218.4,181.605 219.5,180.5 Z"/></g>
<g><path style="opacity:1" fill="#939cb0" d="M 217.5,184.5 C 218.289,184.217 218.956,183.717 219.5,183C 232.496,182.5 245.496,182.333 258.5,182.5C 258.5,184.167 258.5,185.833 258.5,187.5C 244.496,187.667 230.496,187.5 216.5,187C 217.252,186.329 217.586,185.496 217.5,184.5 Z"/></g>
<g><path style="opacity:1" fill="#63625c" d="M 214.5,188.5 C 214.573,190.027 213.906,191.027 212.5,191.5C 212.427,189.973 213.094,188.973 214.5,188.5 Z"/></g>
<g><path style="opacity:1" fill="#595a5e" d="M 212.5,191.5 C 227.798,193.484 243.464,194.151 259.5,193.5C 259.5,196.167 259.5,198.833 259.5,201.5C 241.83,201.333 224.164,201.5 206.5,202C 205.117,203.271 204.117,204.771 203.5,206.5C 202.833,206.5 202.167,206.5 201.5,206.5C 203.482,203.19 205.815,200.19 208.5,197.5C 209.34,195.147 210.674,193.147 212.5,191.5 Z"/></g>
<g><path style="opacity:1" fill="#393940" d="M 462.5,195.5 C 397.5,195.5 332.5,195.5 267.5,195.5C 267.5,196.833 267.5,198.167 267.5,199.5C 267.5,200.167 267.167,200.5 266.5,200.5C 266.5,198.5 266.5,196.5 266.5,194.5C 332.002,194.168 397.335,194.501 462.5,195.5 Z"/></g>
<g><path style="opacity:1" fill="#929bae" d="M 462.5,195.5 C 462.5,196.833 462.5,198.167 462.5,199.5C 397.5,199.5 332.5,199.5 267.5,199.5C 267.5,198.167 267.5,196.833 267.5,195.5C 332.5,195.5 397.5,195.5 462.5,195.5 Z"/></g>
<g><path style="opacity:1" fill="#8f99ac" d="M 208.5,197.5 C 209.289,197.217 209.956,196.717 210.5,196C 226.497,195.5 242.497,195.333 258.5,195.5C 258.5,197.167 258.5,198.833 258.5,200.5C 241.497,200.667 224.497,200.5 207.5,200C 208.252,199.329 208.586,198.496 208.5,197.5 Z"/></g>
<g><path style="opacity:1" fill="#76777b" d="M 462.5,195.5 C 463.306,196.997 463.972,198.664 464.5,200.5C 398.335,201.832 332.335,201.832 266.5,200.5C 267.167,200.5 267.5,200.167 267.5,199.5C 332.5,199.5 397.5,199.5 462.5,199.5C 462.5,198.167 462.5,196.833 462.5,195.5 Z"/></g>
<g><path style="opacity:1" fill="#76756f" d="M 474.5,187.5 C 479.236,195.648 482.903,204.314 485.5,213.5C 481.288,205.075 477.622,196.409 474.5,187.5 Z"/></g>
<g><path style="opacity:1" fill="#3c3b39" d="M 201.5,206.5 C 202.167,206.5 202.833,206.5 203.5,206.5C 222.167,206.5 240.833,206.5 259.5,206.5C 259.5,208.833 259.5,211.167 259.5,213.5C 259.167,213.5 258.833,213.5 258.5,213.5C 258.5,211.5 258.5,209.5 258.5,207.5C 239.83,207.333 221.164,207.5 202.5,208C 201.627,209.045 200.627,209.878 199.5,210.5C 199.733,208.938 200.4,207.605 201.5,206.5 Z"/></g>
<g><path style="opacity:1" fill="#8a92a5" d="M 258.5,213.5 C 238.497,213.667 218.497,213.5 198.5,213C 199.252,212.329 199.586,211.496 199.5,210.5C 200.627,209.878 201.627,209.045 202.5,208C 221.164,207.5 239.83,207.333 258.5,207.5C 258.5,209.5 258.5,211.5 258.5,213.5 Z"/></g>
<g><path style="opacity:1" fill="#8c94a6" d="M 465.5,207.5 C 466.338,207.842 466.672,208.508 466.5,209.5C 465.596,210.209 465.263,211.209 465.5,212.5C 399.5,212.5 333.5,212.5 267.5,212.5C 267.5,210.833 267.5,209.167 267.5,207.5C 333.805,207.506 399.805,207.506 465.5,207.5 Z"/></g>
<g><path style="opacity:1" fill="#464442" d="M 465.5,207.5 C 399.805,207.506 333.805,207.506 267.5,207.5C 267.5,209.167 267.5,210.833 267.5,212.5C 333.5,212.5 399.5,212.5 465.5,212.5C 465.263,211.209 465.596,210.209 466.5,209.5C 466.5,210.833 466.5,212.167 466.5,213.5C 399.833,213.5 333.167,213.5 266.5,213.5C 266.5,211.167 266.5,208.833 266.5,206.5C 333.002,206.168 399.335,206.501 465.5,207.5 Z"/></g>
<g><path style="opacity:1" fill="#717069" d="M 199.5,210.5 C 199.586,211.496 199.252,212.329 198.5,213C 218.497,213.5 238.497,213.667 258.5,213.5C 258.833,213.5 259.167,213.5 259.5,213.5C 239.004,214.332 218.337,214.832 197.5,215C 196.167,217.191 194.5,219.024 192.5,220.5C 194.062,216.608 196.395,213.275 199.5,210.5 Z"/></g>
<g><path style="opacity:1" fill="#6f6e69" d="M 485.5,213.5 C 487.267,215.792 488.267,218.458 488.5,221.5C 486.733,219.208 485.733,216.542 485.5,213.5 Z"/></g>
<g><path style="opacity:1" fill="#3c3c39" d="M 192.5,220.5 C 241.495,221.833 290.829,222.5 340.5,222.5C 390.001,222.5 439.334,222.167 488.5,221.5C 489.404,222.209 489.737,223.209 489.5,224.5C 364.57,223.502 239.57,223.169 114.5,223.5C 114.167,223.5 113.833,223.5 113.5,223.5C 138.997,222.668 164.663,222.168 190.5,222C 191.044,221.283 191.711,220.783 192.5,220.5 Z"/></g>
<g><path style="opacity:1" fill="#3a6949" d="M 114.5,223.5 C 239.57,223.169 364.57,223.502 489.5,224.5C 490.338,224.842 490.672,225.508 490.5,226.5C 365.167,226.5 239.833,226.5 114.5,226.5C 114.5,225.5 114.5,224.5 114.5,223.5 Z"/></g>
<g><path style="opacity:1" fill="#1c2e20" d="M 113.5,223.5 C 113.833,223.5 114.167,223.5 114.5,223.5C 114.5,224.5 114.5,225.5 114.5,226.5C 239.833,226.5 365.167,226.5 490.5,226.5C 492.051,228.913 492.717,231.579 492.5,234.5C 491.5,232.5 490.5,230.5 489.5,228.5C 364.334,227.5 239.001,227.167 113.5,227.5C 113.5,226.167 113.5,224.833 113.5,223.5 Z"/></g>
<g><path style="opacity:1" fill="#bbb8a8" d="M 113.5,227.5 C 239.001,227.167 364.334,227.5 489.5,228.5C 365.166,228.333 240.833,228.5 116.5,229C 117.71,230.039 118.71,231.206 119.5,232.5C 116.911,231.581 114.911,229.914 113.5,227.5 Z"/></g>
<g><path style="opacity:1" fill="#f5f0dc" d="M 489.5,228.5 C 490.5,230.5 491.5,232.5 492.5,234.5C 493.47,240.698 494.804,246.698 496.5,252.5C 497.324,255.764 497.658,259.098 497.5,262.5C 497.5,264.5 497.5,266.5 497.5,268.5C 379.167,268.5 260.833,268.5 142.5,268.5C 142.815,264.629 142.482,260.962 141.5,257.5C 141.5,256.833 141.5,256.167 141.5,255.5C 140.641,251.108 138.307,247.775 134.5,245.5C 132.431,242.427 129.764,240.094 126.5,238.5C 124.761,235.757 122.427,233.757 119.5,232.5C 118.71,231.206 117.71,230.039 116.5,229C 240.833,228.5 365.166,228.333 489.5,228.5 Z"/></g>
<g><path style="opacity:1" fill="#0a376e" d="M 139.5,254.5 C 140.167,254.833 140.833,255.167 141.5,255.5C 141.5,256.167 141.5,256.833 141.5,257.5C 141.5,261.5 141.5,265.5 141.5,269.5C 260.5,269.5 379.5,269.5 498.5,269.5C 496.968,288.048 493.302,306.048 487.5,323.5C 475.114,332.351 462.114,340.184 448.5,347C 437.826,351.782 426.66,354.282 415,354.5C 411.748,354.481 408.915,353.814 406.5,352.5C 409.361,348.298 410.194,343.631 409,338.5C 406.613,334.624 403.113,332.624 398.5,332.5C 390.016,331.507 381.349,331.174 372.5,331.5C 372.5,334.833 372.5,338.167 372.5,341.5C 363.434,335.605 355.101,328.772 347.5,321C 338.167,310.333 328.833,299.667 319.5,289C 304.363,277.255 287.696,274.589 269.5,281C 244.848,291.155 219.848,300.488 194.5,309C 140.94,322.39 88.2732,319.724 36.5,301C 27.2807,298.63 17.9474,296.797 8.5,295.5C 6.43151,282.064 5.09818,268.564 4.5,255C 4.52543,249.089 5.1921,243.422 6.5,238C 28.5114,233.384 50.5114,233.384 72.5,238C 94.6328,244.283 116.966,249.783 139.5,254.5 Z"/></g>
<g><path style="opacity:1" fill="#706f68" d="M 119.5,232.5 C 122.427,233.757 124.761,235.757 126.5,238.5C 123.573,237.243 121.239,235.243 119.5,232.5 Z"/></g>
<g><path style="opacity:1" fill="#72716c" d="M 126.5,238.5 C 129.764,240.094 132.431,242.427 134.5,245.5C 131.236,243.906 128.569,241.573 126.5,238.5 Z"/></g>
<g><path style="opacity:1" fill="#6f6e68" d="M 492.5,234.5 C 494.783,239.138 496.116,244.138 496.5,249.5C 496.5,249.833 496.5,250.167 496.5,250.5C 496.5,251.167 496.5,251.833 496.5,252.5C 494.804,246.698 493.47,240.698 492.5,234.5 Z"/></g>
<g><path style="opacity:1" fill="#808590" d="M 351.5,240.5 C 359.064,239.09 361.564,242.09 359,249.5C 356.333,252.167 353.667,252.167 351,249.5C 350.264,246.408 350.431,243.408 351.5,240.5 Z"/></g>
<g><path style="opacity:1" fill="#606164" d="M 456.5,240.5 C 464.618,240.382 466.618,243.882 462.5,251C 460.432,251.687 458.432,251.52 456.5,250.5C 455.249,247.126 455.249,243.793 456.5,240.5 Z"/></g>
<g><path style="opacity:1" fill="#575a5e" d="M 273.5,240.5 C 281.618,240.382 283.618,243.882 279.5,251C 277.231,251.758 275.064,251.591 273,250.5C 272.253,247.076 272.42,243.743 273.5,240.5 Z"/></g>
<g><path style="opacity:1" fill="#949cb0" d="M 273.5,242.5 C 275.5,242.5 277.5,242.5 279.5,242.5C 279.5,244.833 279.5,247.167 279.5,249.5C 277.5,249.5 275.5,249.5 273.5,249.5C 273.5,247.167 273.5,244.833 273.5,242.5 Z"/></g>
<g><path style="opacity:1" fill="#5d5d5d" d="M 332.5,249.5 C 330.583,251.745 328.25,252.078 325.5,250.5C 324.213,247.291 324.213,244.125 325.5,241C 332.738,239.777 335.072,242.611 332.5,249.5 Z"/></g>
<g><path style="opacity:1" fill="#9098ab" d="M 332.5,249.5 C 330.167,249.5 327.833,249.5 325.5,249.5C 325.5,247.167 325.5,244.833 325.5,242.5C 327.833,242.5 330.167,242.5 332.5,242.5C 332.5,244.833 332.5,247.167 332.5,249.5 Z"/></g>
<g><path style="opacity:1" fill="#5b5c61" d="M 430.5,240.5 C 438.618,240.382 440.618,243.882 436.5,251C 434.231,251.758 432.064,251.591 430,250.5C 429.253,247.076 429.42,243.743 430.5,240.5 Z"/></g>
<g><path style="opacity:1" fill="#939caf" d="M 430.5,242.5 C 432.5,242.5 434.5,242.5 436.5,242.5C 436.5,244.833 436.5,247.167 436.5,249.5C 434.5,249.5 432.5,249.5 430.5,249.5C 430.5,247.167 430.5,244.833 430.5,242.5 Z"/></g>
<g><path style="opacity:1" fill="#929bae" d="M 456.5,242.5 C 458.5,242.5 460.5,242.5 462.5,242.5C 462.5,244.833 462.5,247.167 462.5,249.5C 460.5,249.5 458.5,249.5 456.5,249.5C 456.5,247.167 456.5,244.833 456.5,242.5 Z"/></g>
<g><path style="opacity:1" fill="#868d9b" d="M 194.5,240.5 C 202.064,239.09 204.564,242.09 202,249.5C 199.333,252.167 196.667,252.167 194,249.5C 193.264,246.408 193.431,243.408 194.5,240.5 Z"/></g>
<g><path style="opacity:1" fill="#76756f" d="M 134.5,245.5 C 138.307,247.775 140.641,251.108 141.5,255.5C 140.833,255.167 140.167,254.833 139.5,254.5C 138.234,251.245 136.568,248.245 134.5,245.5 Z"/></g>
<g><path style="opacity:1" fill="#5a5d5d" d="M 220.5,249.5 C 217.928,242.611 220.262,239.777 227.5,241C 228.787,244.125 228.787,247.291 227.5,250.5C 224.75,252.078 222.417,251.745 220.5,249.5 Z"/></g>
<g><path style="opacity:1" fill="#8f98ab" d="M 220.5,249.5 C 220.192,247.076 220.526,244.743 221.5,242.5C 223.371,241.233 225.204,241.233 227,242.5C 227.497,244.81 227.663,247.143 227.5,249.5C 225.167,249.5 222.833,249.5 220.5,249.5 Z"/></g>
<g><path style="opacity:1" fill="#5c5e63" d="M 247.5,240.5 C 249.792,240.244 251.959,240.577 254,241.5C 254.784,244.76 254.617,247.927 253.5,251C 246.495,252.324 243.995,249.49 246,242.5C 246.717,241.956 247.217,241.289 247.5,240.5 Z"/></g>
<g><path style="opacity:1" fill="#929bae" d="M 247.5,242.5 C 249.5,242.5 251.5,242.5 253.5,242.5C 253.5,244.833 253.5,247.167 253.5,249.5C 251.5,249.5 249.5,249.5 247.5,249.5C 247.5,247.167 247.5,244.833 247.5,242.5 Z"/></g>
<g><path style="opacity:1" fill="#5a5b5c" d="M 305.5,241.5 C 303.533,241.261 301.699,241.594 300,242.5C 299.503,244.81 299.337,247.143 299.5,249.5C 305.905,250.594 308.238,247.927 306.5,241.5C 309.535,249.293 307.035,252.293 299,250.5C 298.333,247.5 298.333,244.5 299,241.5C 301.274,240.189 303.44,240.189 305.5,241.5 Z"/></g>
<g><path style="opacity:1" fill="#8c94a7" d="M 305.5,241.5 C 305.833,241.5 306.167,241.5 306.5,241.5C 308.238,247.927 305.905,250.594 299.5,249.5C 299.337,247.143 299.503,244.81 300,242.5C 301.699,241.594 303.533,241.261 305.5,241.5 Z"/></g>
<g><path style="opacity:1" fill="#58595a" d="M 378.5,240.5 C 380.792,240.244 382.959,240.577 385,241.5C 385.821,244.554 385.655,247.554 384.5,250.5C 379.236,252.859 376.569,251.192 376.5,245.5C 376.724,243.545 377.391,241.879 378.5,240.5 Z"/></g>
<g><path style="opacity:1" fill="#8f98aa" d="M 379.5,241.5 C 381.144,241.286 382.644,241.62 384,242.5C 384.497,244.81 384.663,247.143 384.5,249.5C 377.395,250.148 375.728,247.481 379.5,241.5 Z"/></g>
<g><path style="opacity:1" fill="#5c5d62" d="M 404.5,240.5 C 406.792,240.244 408.959,240.577 411,241.5C 411.784,244.76 411.617,247.927 410.5,251C 403.495,252.324 400.995,249.49 403,242.5C 403.717,241.956 404.217,241.289 404.5,240.5 Z"/></g>
<g><path style="opacity:1" fill="#939caf" d="M 404.5,242.5 C 406.5,242.5 408.5,242.5 410.5,242.5C 410.5,244.833 410.5,247.167 410.5,249.5C 408.5,249.5 406.5,249.5 404.5,249.5C 404.5,247.167 404.5,244.833 404.5,242.5 Z"/></g>
<g><path style="opacity:1" fill="#15274f" d="M 496.5,250.5 C 498.423,254.029 499.089,258.029 498.5,262.5C 498.167,262.5 497.833,262.5 497.5,262.5C 497.658,259.098 497.324,255.764 496.5,252.5C 496.5,251.833 496.5,251.167 496.5,250.5 Z"/></g>
<g><path style="opacity:1" fill="#b5c0cd" d="M 496.5,250.5 C 496.5,250.167 496.5,249.833 496.5,249.5C 497.5,249.5 498.5,249.5 499.5,249.5C 499.5,255.5 499.5,261.5 499.5,267.5C 499.167,267.5 498.833,267.5 498.5,267.5C 498.5,265.833 498.5,264.167 498.5,262.5C 499.089,258.029 498.423,254.029 496.5,250.5 Z"/></g>
<g><path style="opacity:1" fill="#414645" d="M 141.5,257.5 C 142.482,260.962 142.815,264.629 142.5,268.5C 260.833,268.5 379.167,268.5 497.5,268.5C 497.5,266.5 497.5,264.5 497.5,262.5C 497.833,262.5 498.167,262.5 498.5,262.5C 498.5,264.167 498.5,265.833 498.5,267.5C 498.5,268.167 498.5,268.833 498.5,269.5C 379.5,269.5 260.5,269.5 141.5,269.5C 141.5,265.5 141.5,261.5 141.5,257.5 Z"/></g>
<g><path style="opacity:1" fill="#fefefe" d="M 498.5,267.5 C 498.833,267.5 499.167,267.5 499.5,267.5C 499.5,344.833 499.5,422.167 499.5,499.5C 420.167,499.5 340.833,499.5 261.5,499.5C 307.349,496.884 349.349,482.884 387.5,457.5C 436.831,424.866 470.164,380.199 487.5,323.5C 493.302,306.048 496.968,288.048 498.5,269.5C 498.5,268.833 498.5,268.167 498.5,267.5 Z"/></g>
<g><path style="opacity:1" fill="#125387" d="M 372.5,341.5 C 372.172,352.346 372.506,363.013 373.5,373.5C 377.5,373.5 381.5,373.5 385.5,373.5C 385.5,367.833 385.5,362.167 385.5,356.5C 387.288,356.215 388.955,356.548 390.5,357.5C 392.606,362.655 394.606,367.822 396.5,373C 400.821,373.499 405.154,373.666 409.5,373.5C 407.878,367.417 405.545,361.584 402.5,356C 403.645,354.598 404.978,353.431 406.5,352.5C 408.915,353.814 411.748,354.481 415,354.5C 426.66,354.282 437.826,351.782 448.5,347C 462.114,340.184 475.114,332.351 487.5,323.5C 470.164,380.199 436.831,424.866 387.5,457.5C 377.942,456.036 368.942,452.869 360.5,448C 352.972,443.736 345.972,438.736 339.5,433C 328.76,422.256 317.427,412.256 305.5,403C 284.658,387.628 261.325,381.628 235.5,385C 212.603,389.538 189.603,393.538 166.5,397C 141.212,399.588 116.545,396.921 92.5,389C 75.6717,382.168 61.1717,372.001 49,358.5C 40.3333,347.833 31.6667,337.167 23,326.5C 20.2532,323.246 17.0865,320.58 13.5,318.5C 11.7015,310.839 10.0349,303.172 8.5,295.5C 17.9474,296.797 27.2807,298.63 36.5,301C 88.2732,319.724 140.94,322.39 194.5,309C 219.848,300.488 244.848,291.155 269.5,281C 287.696,274.589 304.363,277.255 319.5,289C 328.833,299.667 338.167,310.333 347.5,321C 355.101,328.772 363.434,335.605 372.5,341.5 Z"/></g>
<g><path style="opacity:1" fill="#f6f9f9" d="M 92.5,331.5 C 97.8437,331.334 103.177,331.501 108.5,332C 118.673,335.147 119.007,338.981 109.5,343.5C 105.74,339.82 101.407,338.82 96.5,340.5C 95.2528,342.006 95.2528,343.506 96.5,345C 102.309,346.202 107.976,347.869 113.5,350C 121.288,359.581 119.622,367.247 108.5,373C 102.5,373.667 96.5,373.667 90.5,373C 79.4914,369.422 78.9914,365.255 89,360.5C 91.1561,361.985 93.3228,363.485 95.5,365C 98.8678,365.543 102.201,365.376 105.5,364.5C 105.714,362.856 105.38,361.356 104.5,360C 99.8167,358.665 95.1501,357.331 90.5,356C 83.9298,352.345 81.7632,346.845 84,339.5C 86.0738,335.923 88.9072,333.256 92.5,331.5 Z"/></g>
<g><path style="opacity:1" fill="#f6f9f9" d="M 215.5,331.5 C 222.391,330.901 229.058,331.735 235.5,334C 236.833,335.333 238.167,336.667 239.5,338C 237.167,339.833 234.833,341.667 232.5,343.5C 228.792,339.995 224.459,338.828 219.5,340C 216.833,341.667 216.833,343.333 219.5,345C 225.768,346.201 231.768,348.201 237.5,351C 244.044,362.914 240.711,370.581 227.5,374C 218.907,375.478 211.407,373.311 205,367.5C 204.333,366.5 204.333,365.5 205,364.5C 207.086,362.751 209.419,361.417 212,360.5C 215.403,365.082 219.903,366.582 225.5,365C 229.5,363 229.5,361 225.5,359C 216.546,359.114 210.046,355.28 206,347.5C 205.21,344.366 205.543,341.366 207,338.5C 209.441,335.546 212.275,333.213 215.5,331.5 Z"/></g>
<g><path style="opacity:1" fill="#548aae" d="M 13.5,318.5 C 17.0865,320.58 20.2532,323.246 23,326.5C 31.6667,337.167 40.3333,347.833 49,358.5C 61.1717,372.001 75.6717,382.168 92.5,389C 116.545,396.921 141.212,399.588 166.5,397C 189.603,393.538 212.603,389.538 235.5,385C 261.325,381.628 284.658,387.628 305.5,403C 317.427,412.256 328.76,422.256 339.5,433C 345.972,438.736 352.972,443.736 360.5,448C 368.942,452.869 377.942,456.036 387.5,457.5C 349.349,482.884 307.349,496.884 261.5,499.5C 252.833,499.5 244.167,499.5 235.5,499.5C 223.279,497.92 210.946,496.087 198.5,494C 104.241,469.868 42.5741,411.368 13.5,318.5 Z"/></g>
<g><path style="opacity:1" fill="#f9fbfb" d="M 154.5,340.5 C 148.167,340.5 141.833,340.5 135.5,340.5C 135.5,342.833 135.5,345.167 135.5,347.5C 139.514,347.334 143.514,347.501 147.5,348C 148.833,351 148.833,354 147.5,357C 143.514,357.499 139.514,357.666 135.5,357.5C 135.5,359.833 135.5,362.167 135.5,364.5C 142.167,364.5 148.833,364.5 155.5,364.5C 155.5,367.5 155.5,370.5 155.5,373.5C 144.833,373.5 134.167,373.5 123.5,373.5C 123.5,359.833 123.5,346.167 123.5,332.5C 133.833,332.5 144.167,332.5 154.5,332.5C 154.5,335.167 154.5,337.833 154.5,340.5 Z"/></g>
<g><path style="opacity:1" fill="#f6f8f9" d="M 173.5,331.5 C 178.43,331.197 183.263,331.531 188,332.5C 193.012,346.035 197.512,359.702 201.5,373.5C 197.167,373.5 192.833,373.5 188.5,373.5C 188.916,367.003 185.916,364.337 179.5,365.5C 173.076,364.361 170.076,367.028 170.5,373.5C 166.833,373.5 163.167,373.5 159.5,373.5C 163.566,359.303 168.232,345.303 173.5,331.5 Z"/></g>
<g><path style="opacity:1" fill="#f6f9fa" d="M 258.5,331.5 C 263.214,331.173 267.88,331.507 272.5,332.5C 277.634,346.052 282.301,359.719 286.5,373.5C 282.116,373.826 277.783,373.492 273.5,372.5C 272.423,370.271 271.756,367.937 271.5,365.5C 266.821,365.334 262.155,365.501 257.5,366C 256.5,368.333 255.5,370.667 254.5,373C 251.183,373.498 247.85,373.665 244.5,373.5C 248.164,359.175 252.831,345.175 258.5,331.5 Z"/></g>
<g><path style="opacity:1" fill="#fbfcfc" d="M 322.5,340.5 C 316.167,340.5 309.833,340.5 303.5,340.5C 303.5,343.167 303.5,345.833 303.5,348.5C 307.5,348.5 311.5,348.5 315.5,348.5C 316.477,351.287 316.81,354.287 316.5,357.5C 312.167,357.5 307.833,357.5 303.5,357.5C 303.5,362.833 303.5,368.167 303.5,373.5C 299.5,373.5 295.5,373.5 291.5,373.5C 291.5,359.833 291.5,346.167 291.5,332.5C 301.833,332.5 312.167,332.5 322.5,332.5C 322.5,335.167 322.5,337.833 322.5,340.5 Z"/></g>
<g><path style="opacity:1" fill="#f6f9f9" d="M 340.5,331.5 C 345.214,331.173 349.88,331.507 354.5,332.5C 359.628,346.011 364.294,359.678 368.5,373.5C 364.116,373.826 359.783,373.492 355.5,372.5C 354.423,370.271 353.756,367.937 353.5,365.5C 348.821,365.334 344.155,365.501 339.5,366C 338.802,368.454 337.802,370.787 336.5,373C 333.183,373.498 329.85,373.665 326.5,373.5C 330.164,359.175 334.831,345.175 340.5,331.5 Z"/></g>
<g><path style="opacity:1" fill="#fbfcfc" d="M 398.5,332.5 C 403.113,332.624 406.613,334.624 409,338.5C 410.194,343.631 409.361,348.298 406.5,352.5C 404.978,353.431 403.645,354.598 402.5,356C 405.545,361.584 407.878,367.417 409.5,373.5C 405.154,373.666 400.821,373.499 396.5,373C 394.606,367.822 392.606,362.655 390.5,357.5C 388.955,356.548 387.288,356.215 385.5,356.5C 385.5,362.167 385.5,367.833 385.5,373.5C 381.5,373.5 377.5,373.5 373.5,373.5C 373.5,359.833 373.5,346.167 373.5,332.5C 381.833,332.5 390.167,332.5 398.5,332.5 Z"/></g>
<g><path style="opacity:1" fill="#c9d7e2" d="M 154.5,340.5 C 154.5,337.833 154.5,335.167 154.5,332.5C 144.167,332.5 133.833,332.5 123.5,332.5C 123.5,346.167 123.5,359.833 123.5,373.5C 122.504,359.677 122.171,345.677 122.5,331.5C 133.5,331.5 144.5,331.5 155.5,331.5C 155.81,334.713 155.477,337.713 154.5,340.5 Z"/></g>
<g><path style="opacity:1" fill="#c2d2de" d="M 322.5,340.5 C 322.5,337.833 322.5,335.167 322.5,332.5C 312.167,332.5 301.833,332.5 291.5,332.5C 291.5,346.167 291.5,359.833 291.5,373.5C 290.504,359.677 290.171,345.677 290.5,331.5C 301.5,331.5 312.5,331.5 323.5,331.5C 323.81,334.713 323.477,337.713 322.5,340.5 Z"/></g>
<g><path style="opacity:1" fill="#c7d4de" d="M 398.5,332.5 C 390.167,332.5 381.833,332.5 373.5,332.5C 373.5,346.167 373.5,359.833 373.5,373.5C 372.506,363.013 372.172,352.346 372.5,341.5C 372.5,338.167 372.5,334.833 372.5,331.5C 381.349,331.174 390.016,331.507 398.5,332.5 Z"/></g>
<g><path style="opacity:1" fill="#153b71" d="M 385.5,339.5 C 388.187,339.336 390.854,339.503 393.5,340C 397.027,342.303 397.36,344.97 394.5,348C 391.518,348.498 388.518,348.665 385.5,348.5C 385.5,345.5 385.5,342.5 385.5,339.5 Z"/></g>
<g><path style="opacity:1" fill="#45799f" d="M 322.5,340.5 C 316.69,341.49 310.69,341.823 304.5,341.5C 304.5,343.5 304.5,345.5 304.5,347.5C 308.371,347.185 312.038,347.518 315.5,348.5C 311.5,348.5 307.5,348.5 303.5,348.5C 303.5,345.833 303.5,343.167 303.5,340.5C 309.833,340.5 316.167,340.5 322.5,340.5 Z"/></g>
<g><path style="opacity:1" fill="#255d8e" d="M 263.5,344.5 C 266,347.66 267.333,351.327 267.5,355.5C 265.167,355.5 262.833,355.5 260.5,355.5C 261.207,351.752 262.207,348.086 263.5,344.5 Z"/></g>
<g><path style="opacity:1" fill="#285f8e" d="M 345.5,345.5 C 348.181,348.192 349.514,351.525 349.5,355.5C 347.167,355.5 344.833,355.5 342.5,355.5C 343.101,352.032 344.101,348.699 345.5,345.5 Z"/></g>
<g><path style="opacity:1" fill="#235c8d" d="M 178.5,345.5 C 181.331,348.088 182.665,351.421 182.5,355.5C 180.167,355.5 177.833,355.5 175.5,355.5C 176.492,352.177 177.492,348.844 178.5,345.5 Z"/></g>
</svg>
